<svg xmlns="http://www.w3.org/2000/svg" viewBox="0 0 442 125" width="442" height="125" preserveAspectRatio="xMidYMid meet">
  <!-- Dotted Crescent Pattern -->
  <g fill="#FBE4B9" opacity="1">
    <!-- Outer dots -->
    <circle cx="47.77" cy="67" r="1.2"/>
    <circle cx="50.92" cy="63.5" r="1.2"/>
    <circle cx="54.32" cy="60.2" r="1.2"/>
    <circle cx="57.94" cy="57.1" r="1.2"/>
    <circle cx="61.77" cy="54.2" r="1.2"/>
    <circle cx="65.91" cy="51.4" r="1.2"/>
    <circle cx="70.17" cy="48.8" r="1.2"/>
    <circle cx="74.66" cy="46.4" r="1.2"/>
    <circle cx="79.18" cy="44.2" r="1.2"/>
    <circle cx="83.94" cy="42.2" r="1.2"/>
    <circle cx="88.76" cy="40.4" r="1.2"/>
    <circle cx="93.71" cy="38.8" r="1.2"/>
    <circle cx="98.6" cy="37.4" r="1.2"/>
    <circle cx="103.76" cy="36.2" r="1.2"/>
    <circle cx="108.83" cy="35.2" r="1.2"/>
    <circle cx="113.91" cy="34.4" r="1.2"/>
    <circle cx="118.96" cy="33.8" r="1.2"/>
    <circle cx="124.12" cy="33.4" r="1.2"/>
    <circle cx="129.04" cy="33.2" r="1.2"/>
    <circle cx="134.07" cy="33.2" r="1.2"/>
    <circle cx="138.99" cy="33.4" r="1.2"/>
    <circle cx="143.8" cy="33.8" r="1.2"/>
    <circle cx="148.39" cy="34.4" r="1.2"/>
    <circle cx="152.91" cy="35.2" r="1.2"/>
    <circle cx="157.25" cy="36.2" r="1.2"/>
    <circle cx="161.39" cy="37.4" r="1.2"/>
    <circle cx="165.33" cy="38.8" r="1.2"/>
    <circle cx="169.04" cy="40.4" r="1.2"/>
    <circle cx="172.5" cy="42.2" r="1.2"/>
    <!-- Inner layer -->
    <circle cx="52.64" cy="70.3" r="1.1" opacity="0.9"/>
    <circle cx="55.27" cy="67.2" r="1.1" opacity="0.9"/>
    <circle cx="58.71" cy="63.8" r="1.1" opacity="0.9"/>
    <circle cx="62.39" cy="60.7" r="1.1" opacity="0.9"/>
    <circle cx="66.45" cy="57.8" r="1.1" opacity="0.9"/>
    <circle cx="70.55" cy="55.2" r="1.1" opacity="0.9"/>
    <circle cx="74.89" cy="52.8" r="1.1" opacity="0.9"/>
    <circle cx="79.5" cy="50.6" r="1.1" opacity="0.9"/>
    <circle cx="84.56" cy="48.6" r="1.1" opacity="0.9"/>
    <circle cx="89.34" cy="46.8" r="1.1" opacity="0.9"/>
    <circle cx="94.6" cy="45.2" r="1.1" opacity="0.9"/>
    <circle cx="100.11" cy="43.8" r="1.1" opacity="0.9"/>
    <circle cx="105.5" cy="42.6" r="1.1" opacity="0.9"/>
    <circle cx="111.21" cy="41.6" r="1.1" opacity="0.9"/>
    <circle cx="116.43" cy="40.8" r="1.1" opacity="0.9"/>
    <circle cx="121.79" cy="40.2" r="1.1" opacity="0.9"/>
    <circle cx="127.18" cy="39.8" r="1.1" opacity="0.9"/>
    <circle cx="132.38" cy="39.6" r="1.1" opacity="0.9"/>
    <circle cx="137.34" cy="39.6" r="1.1" opacity="0.9"/>
    <circle cx="142.16" cy="39.8" r="1.1" opacity="0.9"/>
    <circle cx="146.88" cy="40.2" r="1.1" opacity="0.9"/>
    <circle cx="151.45" cy="40.8" r="1.1" opacity="0.9"/>
    <circle cx="155.79" cy="41.6" r="1.1" opacity="0.9"/>
    <circle cx="159.84" cy="42.6" r="1.1" opacity="0.9"/>
    <circle cx="163.66" cy="43.8" r="1.1" opacity="0.9"/>
    <circle cx="167.14" cy="45.2" r="1.1" opacity="0.9"/>
    <!-- More inner layers with decreasing opacity -->
    <circle cx="57.01" cy="73.2" r="1.0" opacity="0.8"/>
    <circle cx="61.69" cy="69.8" r="1.0" opacity="0.8"/>
    <circle cx="66.76" cy="66.2" r="1.0" opacity="0.8"/>
    <circle cx="72.41" cy="62.4" r="1.0" opacity="0.8"/>
    <circle cx="78.24" cy="58.8" r="1.0" opacity="0.8"/>
    <circle cx="84.56" cy="55.4" r="1.0" opacity="0.8"/>
    <circle cx="91.34" cy="52.2" r="1.0" opacity="0.8"/>
    <circle cx="98.42" cy="49.2" r="1.0" opacity="0.8"/>
    <circle cx="105.5" cy="46.4" r="1.0" opacity="0.8"/>
    <circle cx="112.64" cy="43.8" r="1.0" opacity="0.8"/>
    <circle cx="119.93" cy="41.4" r="1.0" opacity="0.8"/>
    <circle cx="127.18" cy="39.2" r="1.0" opacity="0.8"/>
    <circle cx="134.39" cy="37.2" r="1.0" opacity="0.8"/>
    <circle cx="141.46" cy="35.4" r="1.0" opacity="0.8"/>
    <circle cx="148.39" cy="33.8" r="1.0" opacity="0.8"/>
    <circle cx="155.08" cy="32.4" r="1.0" opacity="0.8"/>
    <circle cx="161.49" cy="31.2" r="1.0" opacity="0.8"/>
    <!-- Innermost layer -->
    <circle cx="62.36" cy="75.8" r="0.9" opacity="0.7"/>
    <circle cx="68.29" cy="72.2" r="0.9" opacity="0.7"/>
    <circle cx="74.97" cy="68.4" r="0.9" opacity="0.7"/>
    <circle cx="82.39" cy="64.4" r="0.9" opacity="0.7"/>
    <circle cx="90.47" cy="60.2" r="1.0" opacity="0.7"/>
    <circle cx="98.81" cy="56.2" r="1.0" opacity="0.7"/>
    <circle cx="107.66" cy="52.4" r="1.0" opacity="0.7"/>
    <circle cx="116.73" cy="48.8" r="1.0" opacity="0.7"/>
    <circle cx="125.85" cy="45.4" r="1.0" opacity="0.7"/>
    <circle cx="134.85" cy="42.2" r="1.0" opacity="0.7"/>
    <circle cx="143.64" cy="39.2" r="1.0" opacity="0.7"/>
    <circle cx="152.09" cy="36.4" r="1.0" opacity="0.7"/>
  </g>

  <!-- RAYDRIP Text -->
  <g fill="#FBE4B9" font-family="Cinzel Decorative, serif" font-size="32" font-weight="400" letter-spacing="3">
    <text x="190" y="75">RAYDRIP</text>
  </g>
</svg>